<svg width="437" height="105" viewBox="0 0 437 105" fill="none" xmlns="http://www.w3.org/2000/svg">
<mask id="path-1-inside-1_22_8" fill="white">
<path d="M95.2311 9.49046C97.3788 12.193 98.8106 16.0307 99.5265 21.0035C100.307 25.9222 100.34 31.5436 99.6241 37.8677C98.9082 43.9215 97.6066 49.7861 95.7192 55.4615C93.8969 61.137 91.6841 66.0016 89.0808 70.0555C84.1346 77.5687 78.5701 81.3253 72.3873 81.3253C69.1332 81.3253 66.3673 80.0281 64.0894 77.4336C62.3322 75.4337 60.8028 72.623 59.5011 69.0015C58.0042 64.6773 56.5073 57.4344 55.0105 47.2727C54.2295 42.5161 53.6437 39.246 53.2533 37.4623C52.9929 36.0569 52.7001 34.9489 52.3746 34.1381C52.0492 34.4624 51.7564 34.8948 51.496 35.4353C50.3896 37.165 48.4697 42.0026 45.7363 49.9482C41.3758 62.7045 37.6661 71.8122 34.6073 77.2714C32.0691 81.8118 29.4333 85.2441 26.6998 87.5683C23.641 90.2168 20.3869 91.5411 16.9376 91.5411C16.4169 91.5411 15.8963 91.5141 15.3756 91.46C11.9263 91.0276 9.06265 89.1628 6.78479 85.8657C4.18151 82.2442 2.32668 76.812 1.22029 69.569C0.244057 63.245 -0.146434 56.0561 0.0488114 48.0024C0.309139 40.4892 1.02504 33.3273 2.19651 26.5168C3.43307 19.7062 4.89741 14.5173 6.58954 10.9499C6.84987 10.4093 7.30544 10.031 7.95626 9.81477C8.60708 9.54451 9.2579 9.51748 9.90872 9.73369C10.6246 9.9499 11.1127 10.3283 11.3731 10.8688C11.6334 11.4093 11.6334 11.9768 11.3731 12.5714C9.74601 15.9226 8.37929 20.8684 7.2729 27.4086C6.16651 33.9489 5.48315 40.8675 5.22282 48.1645C5.02758 56.4345 5.45061 63.6504 6.49192 69.8123C7.53323 76.0282 9.12773 80.6767 11.2754 83.7576C12.7072 85.8116 14.3017 86.9467 16.059 87.1629C20.6798 87.7034 25.3006 83.8117 29.9214 75.4877C32.8501 70.2447 36.4947 61.3261 40.8552 48.7321C43.6537 40.5702 45.6387 35.4894 46.8101 33.4895C48.8277 30.1382 50.9754 28.6248 53.2533 28.9491C54.5549 29.1653 55.5637 29.8139 56.2796 30.895C56.9955 31.976 57.6137 33.5165 58.1344 35.5164C58.59 37.5163 59.2408 41.2729 60.0868 46.7862C61.5837 56.6777 63.0481 63.6774 64.4799 67.7853C66.6276 74.0013 69.2634 77.1093 72.3873 77.1093C76.5526 77.1093 80.5876 74.0824 84.4926 68.0286C87.8768 62.7315 90.5126 56.2453 92.4 48.5699C94.3525 40.8946 95.1985 33.6246 94.9382 26.76C94.743 19.8954 93.4088 14.9497 90.9357 11.9228C89.4388 10.031 87.6165 9.16615 85.4688 9.3283C84.9481 9.38235 84.4926 9.3283 84.1021 9.16615C83.7116 9.00399 83.3536 8.76076 83.0282 8.43645C82.7679 8.11214 82.6377 7.7608 82.6377 7.38244C82.5726 6.78787 82.7679 6.27438 83.2235 5.84196C83.679 5.35549 84.2648 5.08524 84.9807 5.03118C89.211 4.76092 92.6278 6.24735 95.2311 9.49046ZM138.185 53.5967C138.771 53.3265 139.357 53.2724 139.942 53.4346C140.528 53.5427 140.984 53.84 141.309 54.3264C141.634 54.7588 141.7 55.2183 141.504 55.7048C140.919 57.6506 139.877 59.3532 138.38 60.8126C136.949 62.272 135.354 63.3531 133.597 64.0558C131.905 64.7584 130.18 65.1098 128.423 65.1098C127.967 65.1098 127.512 65.0827 127.056 65.0287C123.802 64.5963 121.589 63.0288 120.418 60.3262C120.092 60.5964 119.767 60.8667 119.442 61.137C115.732 64.272 112.25 65.8395 108.996 65.8395C108.931 65.8395 108.898 65.8395 108.898 65.8395C107.011 65.8395 105.384 65.2179 104.017 63.9747C102.65 62.6774 102.097 61.191 102.358 59.5154C102.683 57.2993 103.854 55.3534 105.872 53.6778C107.89 52.0022 110.07 50.786 112.413 50.0293C114.756 49.2726 117.034 48.8672 119.246 48.8131C121.004 48.8131 122.5 49.1915 123.737 49.9482C125.039 50.6509 125.852 51.6238 126.178 52.867C126.308 53.4075 126.178 53.894 125.787 54.3264C125.462 54.7588 125.006 55.0291 124.42 55.1372C124.29 55.1372 124.16 55.1372 124.03 55.1372C124.095 55.3534 124.127 55.5966 124.127 55.8669C123.932 59.1641 125.136 61.0018 127.739 61.3802C129.432 61.5964 131.221 61.137 133.109 60.0019C135.126 58.7046 136.493 56.9479 137.209 54.7318C137.339 54.2453 137.664 53.867 138.185 53.5967ZM120.027 54.7318C120.483 54.1913 121.101 53.921 121.882 53.921C121.817 53.8129 121.784 53.7319 121.784 53.6778C121.589 52.9211 120.841 52.5427 119.539 52.5427C119.474 52.5427 119.409 52.5427 119.344 52.5427C116.676 52.5968 114.007 53.3265 111.339 54.7318C108.67 56.0831 107.141 57.8398 106.751 60.0019C106.685 60.5424 106.881 61.0289 107.336 61.4613C107.857 61.9477 108.378 62.1639 108.898 62.1099C110.721 62.1099 112.706 61.2721 114.853 59.5965C117.066 57.8668 118.791 56.2453 120.027 54.7318ZM182.886 53.5157C183.472 53.6778 183.862 54.0021 184.057 54.4886C184.318 54.975 184.35 55.4615 184.155 55.948C183.96 56.4344 183.569 56.7588 182.983 56.9209C182.593 57.0831 182.007 57.2993 181.226 57.5695C174.067 60.164 168.73 62.5423 165.216 64.7044C165.216 68.1637 164.988 71.7581 164.533 75.4877C164.207 78.0281 163.752 80.5686 163.166 83.109C162.645 85.6494 161.637 88.7034 160.14 92.2708C158.708 95.8923 157.016 98.73 155.063 100.784C152.395 103.595 149.369 105 145.984 105C145.008 105 143.999 104.865 142.958 104.595C139.899 103.838 137.817 102.027 136.71 99.1624C135.604 96.2977 135.701 92.8924 137.003 88.9466C138.435 84.8387 140.973 80.8118 144.618 76.866C150.215 70.8663 155.551 66.1908 160.628 62.8396C160.433 58.9479 159.912 56.3534 159.066 55.0561C158.936 54.948 158.838 54.8399 158.773 54.7318C158.382 54.894 157.797 55.2453 157.016 55.7858C156.3 56.3804 155.161 57.4614 153.599 59.0289C152.102 60.4883 150.931 61.5964 150.085 62.3531C149.238 63.1098 148.1 63.8666 146.668 64.6233C145.301 65.38 143.999 65.7584 142.763 65.7584C140.485 65.8124 138.793 65.1368 137.686 63.7314C136.71 62.4342 136.482 60.6235 137.003 58.2992C137.394 56.4615 138.207 54.5156 139.444 52.4616C139.704 52.0292 140.127 51.7319 140.713 51.5698C141.298 51.4076 141.852 51.4347 142.372 51.6509C142.958 51.8671 143.349 52.2184 143.544 52.7049C143.739 53.1913 143.707 53.6778 143.446 54.1643C142.405 55.8939 141.722 57.5155 141.396 59.0289C141.071 60.4883 141.103 61.4072 141.494 61.7856C141.689 62.0018 142.079 62.1099 142.665 62.1099C143.967 62.0558 146.472 60.2181 150.182 56.5966C151.549 55.2453 152.59 54.2453 153.306 53.5967C154.087 52.9481 155.031 52.3535 156.137 51.813C157.244 51.2184 158.285 50.9482 159.261 51.0022C160.758 51.1103 161.995 51.8671 162.971 53.2724C163.947 54.6778 164.598 57.029 164.923 60.3262C168.112 58.5425 172.961 56.4885 179.469 54.1643C180.315 53.894 180.868 53.6778 181.129 53.5157C181.714 53.3535 182.3 53.3535 182.886 53.5157ZM160.042 75.1634C160.433 72.5689 160.66 70.0825 160.725 67.7042C156.755 70.569 152.59 74.3796 148.23 79.1362C145.366 82.1631 143.186 85.4332 141.689 88.9466C140.192 92.46 139.932 95.4869 140.908 98.0273C141.559 99.6489 142.698 100.649 144.325 101.027C146.928 101.676 149.336 100.838 151.549 98.5138C153.566 96.4058 155.324 93.2708 156.821 89.1088C158.317 85.0008 159.391 80.3524 160.042 75.1634ZM213 54.894C213 55.1102 212.967 55.3534 212.902 55.6237C212.837 55.8399 212.707 56.0561 212.512 56.2723C212.382 56.4344 212.186 56.5966 211.926 56.7588C211.666 56.8669 211.406 56.9479 211.145 57.002C207.175 57.4885 202.229 58.7046 196.307 60.6505C196.697 61.191 196.99 61.7856 197.185 62.4342C197.706 64.5422 196.176 66.5421 192.597 68.434C190.189 69.6771 187.455 70.623 184.397 71.2717C182.9 71.5419 181.565 71.6771 180.394 71.6771C178.832 71.6771 177.628 71.4068 176.782 70.8663C175.48 70.0555 175.057 68.9474 175.513 67.5421C176.034 66.0827 177.791 64.5152 180.784 62.8396C182.412 61.9748 184.429 61.0559 186.837 60.0829C184.885 59.4884 183.453 58.9208 182.542 58.3803C180.589 57.1912 179.873 55.6507 180.394 53.7589C180.85 51.9211 182.965 50.0023 186.739 48.0024C187.26 47.7321 187.813 47.651 188.399 47.7591C189.05 47.8672 189.538 48.1375 189.863 48.5699C190.189 49.0023 190.286 49.4618 190.156 49.9482C190.026 50.4347 189.701 50.8401 189.18 51.1644C186.447 52.5697 184.982 53.6778 184.787 54.4886C184.722 54.7048 184.722 54.894 184.787 55.0561C184.852 55.1642 185.21 55.3804 185.861 55.7048C186.512 55.975 187.52 56.3263 188.887 56.7588C190.514 57.1912 191.718 57.5695 192.499 57.8938C199.463 55.5156 205.418 54.0021 210.364 53.3535C211.015 53.2454 211.568 53.3535 212.024 53.6778C212.544 53.9481 212.87 54.3535 213 54.894ZM191.23 64.6233C192.337 63.9206 192.857 63.4342 192.792 63.1639C192.727 62.7855 192.467 62.4342 192.011 62.1099C191.946 62.1639 191.881 62.191 191.816 62.191C188.562 63.4342 185.991 64.5422 184.104 65.5152C182.281 66.4881 181.012 67.2989 180.296 67.9475C181.663 67.9475 183.453 67.6502 185.666 67.0556C187.878 66.4611 189.733 65.6503 191.23 64.6233Z"/>
</mask>
<path d="M95.2311 9.49046C97.3788 12.193 98.8106 16.0307 99.5265 21.0035C100.307 25.9222 100.34 31.5436 99.6241 37.8677C98.9082 43.9215 97.6066 49.7861 95.7192 55.4615C93.8969 61.137 91.6841 66.0016 89.0808 70.0555C84.1346 77.5687 78.5701 81.3253 72.3873 81.3253C69.1332 81.3253 66.3673 80.0281 64.0894 77.4336C62.3322 75.4337 60.8028 72.623 59.5011 69.0015C58.0042 64.6773 56.5073 57.4344 55.0105 47.2727C54.2295 42.5161 53.6437 39.246 53.2533 37.4623C52.9929 36.0569 52.7001 34.9489 52.3746 34.1381C52.0492 34.4624 51.7564 34.8948 51.496 35.4353C50.3896 37.165 48.4697 42.0026 45.7363 49.9482C41.3758 62.7045 37.6661 71.8122 34.6073 77.2714C32.0691 81.8118 29.4333 85.2441 26.6998 87.5683C23.641 90.2168 20.3869 91.5411 16.9376 91.5411C16.4169 91.5411 15.8963 91.5141 15.3756 91.46C11.9263 91.0276 9.06265 89.1628 6.78479 85.8657C4.18151 82.2442 2.32668 76.812 1.22029 69.569C0.244057 63.245 -0.146434 56.0561 0.0488114 48.0024C0.309139 40.4892 1.02504 33.3273 2.19651 26.5168C3.43307 19.7062 4.89741 14.5173 6.58954 10.9499C6.84987 10.4093 7.30544 10.031 7.95626 9.81477C8.60708 9.54451 9.2579 9.51748 9.90872 9.73369C10.6246 9.9499 11.1127 10.3283 11.3731 10.8688C11.6334 11.4093 11.6334 11.9768 11.3731 12.5714C9.74601 15.9226 8.37929 20.8684 7.2729 27.4086C6.16651 33.9489 5.48315 40.8675 5.22282 48.1645C5.02758 56.4345 5.45061 63.6504 6.49192 69.8123C7.53323 76.0282 9.12773 80.6767 11.2754 83.7576C12.7072 85.8116 14.3017 86.9467 16.059 87.1629C20.6798 87.7034 25.3006 83.8117 29.9214 75.4877C32.8501 70.2447 36.4947 61.3261 40.8552 48.7321C43.6537 40.5702 45.6387 35.4894 46.8101 33.4895C48.8277 30.1382 50.9754 28.6248 53.2533 28.9491C54.5549 29.1653 55.5637 29.8139 56.2796 30.895C56.9955 31.976 57.6137 33.5165 58.1344 35.5164C58.59 37.5163 59.2408 41.2729 60.0868 46.7862C61.5837 56.6777 63.0481 63.6774 64.4799 67.7853C66.6276 74.0013 69.2634 77.1093 72.3873 77.1093C76.5526 77.1093 80.5876 74.0824 84.4926 68.0286C87.8768 62.7315 90.5126 56.2453 92.4 48.5699C94.3525 40.8946 95.1985 33.6246 94.9382 26.76C94.743 19.8954 93.4088 14.9497 90.9357 11.9228C89.4388 10.031 87.6165 9.16615 85.4688 9.3283C84.9481 9.38235 84.4926 9.3283 84.1021 9.16615C83.7116 9.00399 83.3536 8.76076 83.0282 8.43645C82.7679 8.11214 82.6377 7.7608 82.6377 7.38244C82.5726 6.78787 82.7679 6.27438 83.2235 5.84196C83.679 5.35549 84.2648 5.08524 84.9807 5.03118C89.211 4.76092 92.6278 6.24735 95.2311 9.49046ZM138.185 53.5967C138.771 53.3265 139.357 53.2724 139.942 53.4346C140.528 53.5427 140.984 53.84 141.309 54.3264C141.634 54.7588 141.7 55.2183 141.504 55.7048C140.919 57.6506 139.877 59.3532 138.38 60.8126C136.949 62.272 135.354 63.3531 133.597 64.0558C131.905 64.7584 130.18 65.1098 128.423 65.1098C127.967 65.1098 127.512 65.0827 127.056 65.0287C123.802 64.5963 121.589 63.0288 120.418 60.3262C120.092 60.5964 119.767 60.8667 119.442 61.137C115.732 64.272 112.25 65.8395 108.996 65.8395C108.931 65.8395 108.898 65.8395 108.898 65.8395C107.011 65.8395 105.384 65.2179 104.017 63.9747C102.65 62.6774 102.097 61.191 102.358 59.5154C102.683 57.2993 103.854 55.3534 105.872 53.6778C107.89 52.0022 110.07 50.786 112.413 50.0293C114.756 49.2726 117.034 48.8672 119.246 48.8131C121.004 48.8131 122.5 49.1915 123.737 49.9482C125.039 50.6509 125.852 51.6238 126.178 52.867C126.308 53.4075 126.178 53.894 125.787 54.3264C125.462 54.7588 125.006 55.0291 124.42 55.1372C124.29 55.1372 124.16 55.1372 124.03 55.1372C124.095 55.3534 124.127 55.5966 124.127 55.8669C123.932 59.1641 125.136 61.0018 127.739 61.3802C129.432 61.5964 131.221 61.137 133.109 60.0019C135.126 58.7046 136.493 56.9479 137.209 54.7318C137.339 54.2453 137.664 53.867 138.185 53.5967ZM120.027 54.7318C120.483 54.1913 121.101 53.921 121.882 53.921C121.817 53.8129 121.784 53.7319 121.784 53.6778C121.589 52.9211 120.841 52.5427 119.539 52.5427C119.474 52.5427 119.409 52.5427 119.344 52.5427C116.676 52.5968 114.007 53.3265 111.339 54.7318C108.67 56.0831 107.141 57.8398 106.751 60.0019C106.685 60.5424 106.881 61.0289 107.336 61.4613C107.857 61.9477 108.378 62.1639 108.898 62.1099C110.721 62.1099 112.706 61.2721 114.853 59.5965C117.066 57.8668 118.791 56.2453 120.027 54.7318ZM182.886 53.5157C183.472 53.6778 183.862 54.0021 184.057 54.4886C184.318 54.975 184.35 55.4615 184.155 55.948C183.96 56.4344 183.569 56.7588 182.983 56.9209C182.593 57.0831 182.007 57.2993 181.226 57.5695C174.067 60.164 168.73 62.5423 165.216 64.7044C165.216 68.1637 164.988 71.7581 164.533 75.4877C164.207 78.0281 163.752 80.5686 163.166 83.109C162.645 85.6494 161.637 88.7034 160.14 92.2708C158.708 95.8923 157.016 98.73 155.063 100.784C152.395 103.595 149.369 105 145.984 105C145.008 105 143.999 104.865 142.958 104.595C139.899 103.838 137.817 102.027 136.71 99.1624C135.604 96.2977 135.701 92.8924 137.003 88.9466C138.435 84.8387 140.973 80.8118 144.618 76.866C150.215 70.8663 155.551 66.1908 160.628 62.8396C160.433 58.9479 159.912 56.3534 159.066 55.0561C158.936 54.948 158.838 54.8399 158.773 54.7318C158.382 54.894 157.797 55.2453 157.016 55.7858C156.3 56.3804 155.161 57.4614 153.599 59.0289C152.102 60.4883 150.931 61.5964 150.085 62.3531C149.238 63.1098 148.1 63.8666 146.668 64.6233C145.301 65.38 143.999 65.7584 142.763 65.7584C140.485 65.8124 138.793 65.1368 137.686 63.7314C136.71 62.4342 136.482 60.6235 137.003 58.2992C137.394 56.4615 138.207 54.5156 139.444 52.4616C139.704 52.0292 140.127 51.7319 140.713 51.5698C141.298 51.4076 141.852 51.4347 142.372 51.6509C142.958 51.8671 143.349 52.2184 143.544 52.7049C143.739 53.1913 143.707 53.6778 143.446 54.1643C142.405 55.8939 141.722 57.5155 141.396 59.0289C141.071 60.4883 141.103 61.4072 141.494 61.7856C141.689 62.0018 142.079 62.1099 142.665 62.1099C143.967 62.0558 146.472 60.2181 150.182 56.5966C151.549 55.2453 152.59 54.2453 153.306 53.5967C154.087 52.9481 155.031 52.3535 156.137 51.813C157.244 51.2184 158.285 50.9482 159.261 51.0022C160.758 51.1103 161.995 51.8671 162.971 53.2724C163.947 54.6778 164.598 57.029 164.923 60.3262C168.112 58.5425 172.961 56.4885 179.469 54.1643C180.315 53.894 180.868 53.6778 181.129 53.5157C181.714 53.3535 182.3 53.3535 182.886 53.5157ZM160.042 75.1634C160.433 72.5689 160.66 70.0825 160.725 67.7042C156.755 70.569 152.59 74.3796 148.23 79.1362C145.366 82.1631 143.186 85.4332 141.689 88.9466C140.192 92.46 139.932 95.4869 140.908 98.0273C141.559 99.6489 142.698 100.649 144.325 101.027C146.928 101.676 149.336 100.838 151.549 98.5138C153.566 96.4058 155.324 93.2708 156.821 89.1088C158.317 85.0008 159.391 80.3524 160.042 75.1634ZM213 54.894C213 55.1102 212.967 55.3534 212.902 55.6237C212.837 55.8399 212.707 56.0561 212.512 56.2723C212.382 56.4344 212.186 56.5966 211.926 56.7588C211.666 56.8669 211.406 56.9479 211.145 57.002C207.175 57.4885 202.229 58.7046 196.307 60.6505C196.697 61.191 196.99 61.7856 197.185 62.4342C197.706 64.5422 196.176 66.5421 192.597 68.434C190.189 69.6771 187.455 70.623 184.397 71.2717C182.9 71.5419 181.565 71.6771 180.394 71.6771C178.832 71.6771 177.628 71.4068 176.782 70.8663C175.48 70.0555 175.057 68.9474 175.513 67.5421C176.034 66.0827 177.791 64.5152 180.784 62.8396C182.412 61.9748 184.429 61.0559 186.837 60.0829C184.885 59.4884 183.453 58.9208 182.542 58.3803C180.589 57.1912 179.873 55.6507 180.394 53.7589C180.85 51.9211 182.965 50.0023 186.739 48.0024C187.26 47.7321 187.813 47.651 188.399 47.7591C189.05 47.8672 189.538 48.1375 189.863 48.5699C190.189 49.0023 190.286 49.4618 190.156 49.9482C190.026 50.4347 189.701 50.8401 189.18 51.1644C186.447 52.5697 184.982 53.6778 184.787 54.4886C184.722 54.7048 184.722 54.894 184.787 55.0561C184.852 55.1642 185.21 55.3804 185.861 55.7048C186.512 55.975 187.52 56.3263 188.887 56.7588C190.514 57.1912 191.718 57.5695 192.499 57.8938C199.463 55.5156 205.418 54.0021 210.364 53.3535C211.015 53.2454 211.568 53.3535 212.024 53.6778C212.544 53.9481 212.87 54.3535 213 54.894ZM191.23 64.6233C192.337 63.9206 192.857 63.4342 192.792 63.1639C192.727 62.7855 192.467 62.4342 192.011 62.1099C191.946 62.1639 191.881 62.191 191.816 62.191C188.562 63.4342 185.991 64.5422 184.104 65.5152C182.281 66.4881 181.012 67.2989 180.296 67.9475C181.663 67.9475 183.453 67.6502 185.666 67.0556C187.878 66.4611 189.733 65.6503 191.23 64.6233Z" fill="#613D2B" stroke="#613D2B" stroke-width="2" mask="url(#path-1-inside-1_22_8)"/>
<mask id="path-2-inside-2_22_8" fill="white">
<path d="M287.441 52.8666C288.155 52.7586 288.805 52.8666 289.389 53.1907C289.973 53.5148 290.331 53.9739 290.46 54.568C290.59 55.1082 290.46 55.6213 290.071 56.1074C285.656 61.5629 279.585 65.803 271.858 68.8278C268.157 76.1198 260.787 81.8993 249.749 86.1664C239.815 90.0555 229.004 92 217.316 92C214.33 92 211.408 91.838 208.551 91.5139C206.019 91.2978 203.746 90.8387 201.733 90.1365C199.72 89.4343 198.032 88.5431 196.669 87.4628C195.305 86.3825 194.299 85.1672 193.649 83.8168C193 82.3044 192.838 80.765 193.162 79.1986C193.487 77.6862 194.299 76.3628 195.597 75.2285C197.545 73.392 201.149 72.2037 206.408 71.6636C205.434 60.6446 205.726 49.4367 207.285 38.0396C208.843 26.5886 211.505 16.5419 215.271 7.8996C215.531 7.35946 215.985 6.98136 216.635 6.7653C217.284 6.49523 217.933 6.46822 218.583 6.68428C219.232 6.84632 219.719 7.19742 220.043 7.73756C220.368 8.2777 220.401 8.81785 220.141 9.35799C215.92 19.0806 213.128 30.5046 211.765 43.6301C212.609 41.0374 213.55 38.4717 214.589 35.9331C215.628 33.3944 216.732 30.9637 217.901 28.6411C219.07 26.3185 220.271 24.1039 221.504 21.9974C222.803 19.8368 224.134 17.8112 225.498 15.9207C226.926 14.0302 228.387 12.3288 229.88 10.8164C235.984 4.28064 242.25 0.715691 248.678 0.121532C254.132 -0.364597 258.255 0.607661 261.047 3.03831C264.229 5.79304 265.3 10.1142 264.261 16.0018C263.612 19.4047 261.988 22.9966 259.391 26.7776C256.794 30.5586 253.45 34.2046 249.359 37.7155C247.087 39.7141 244.749 41.4695 242.347 42.9819C254.684 43.036 263.644 45.4396 269.228 50.1929C273.254 53.7038 274.812 58.025 273.903 63.1563C278.773 60.6717 282.734 57.5388 285.785 53.7578C286.24 53.2717 286.792 52.9746 287.441 52.8666ZM247.509 82.2774C254.976 79.4146 260.592 75.7687 264.358 71.3395C260.203 72.4198 255.431 73.257 250.041 73.8512C244.652 74.4993 240.269 74.8774 236.893 74.9855C233.517 75.0935 228.939 75.2015 223.16 75.3096C218.096 75.3636 214.427 75.4446 212.154 75.5526C212.284 77.6592 212.512 79.6577 212.836 81.5482C212.966 82.1424 212.804 82.6555 212.349 83.0876C211.96 83.5738 211.408 83.8708 210.693 83.9789C210.239 84.0329 209.784 83.9789 209.33 83.8168C208.94 83.7088 208.583 83.4927 208.259 83.1686C207.999 82.8986 207.837 82.5745 207.772 82.1964C207.382 80.1438 207.057 78.0643 206.798 75.9577C202.967 76.3898 200.467 77.119 199.298 78.1453C198.065 79.2796 197.805 80.657 198.519 82.2774C199.753 85.0321 203.291 86.7066 209.135 87.3008C215.628 87.8949 222.219 87.7599 228.906 86.8956C235.594 86.0314 241.795 84.492 247.509 82.2774ZM268.644 62.9943C269.553 59.0512 268.481 55.7834 265.43 53.1907C262.508 50.706 258.06 49.0045 252.087 48.0863C246.178 47.114 239.36 47.033 231.634 47.8432C230.789 48.0053 229.978 48.0863 229.199 48.0863C228.744 48.0863 228.322 48.0053 227.933 47.8432C227.608 47.6812 227.316 47.4651 227.056 47.1951C226.796 46.871 226.666 46.5199 226.666 46.1418C226.601 45.5476 226.764 45.0345 227.153 44.6024C227.608 44.1703 228.16 43.9272 228.809 43.8732C229.458 43.7652 230.075 43.6841 230.66 43.6301C231.828 43.36 233.159 42.8739 234.653 42.1717C236.211 41.4155 237.964 40.3893 239.912 39.0929C241.86 37.7966 243.776 36.3382 245.658 34.7177C247.541 33.1513 249.23 31.5309 250.723 29.8565C252.281 28.182 253.612 26.5346 254.716 24.9141C255.885 23.2397 256.826 21.5923 257.541 19.9718C258.32 18.3514 258.839 16.812 259.099 15.3536C259.943 10.8704 259.359 7.76457 257.346 6.03611C256.047 4.90181 254.034 4.33465 251.307 4.33465C250.658 4.33465 249.976 4.36166 249.262 4.41568C244.262 4.84779 239.133 7.84559 233.874 13.4091C231.601 15.8937 229.361 18.8105 227.153 22.1594C225.011 25.5083 223.03 29.1543 221.212 33.0973C219.459 37.0404 217.901 41.1455 216.537 45.4126C213.68 54.541 212.187 63.1563 212.057 71.2585C214.265 71.1504 217.966 71.0694 223.16 71.0154C228.095 70.9614 231.958 70.8804 234.75 70.7723C237.607 70.6643 241.243 70.4213 245.658 70.0432C250.139 69.6651 254.164 69.1249 257.736 68.4227C261.372 67.6665 264.748 66.7483 267.865 65.668C268.189 64.8038 268.449 63.9125 268.644 62.9943ZM312.65 52.5425C313.3 52.4885 313.852 52.6505 314.306 53.0286C314.761 53.3527 314.988 53.7848 314.988 54.325C315.053 54.8111 314.858 55.2432 314.403 55.6213C307.716 61.779 301.158 64.9388 294.73 65.1008C294.535 65.1008 294.34 65.1008 294.145 65.1008C290.444 65.1008 287.555 64.1286 285.477 62.1841C283.464 60.2936 282.75 57.9169 283.334 55.0542C283.724 53.0556 284.698 51.1381 286.256 49.3016C288.139 47.033 290.217 45.8987 292.489 45.8987C294.567 45.8987 296.061 46.6549 296.97 48.1673C297.554 49.1936 297.716 50.2469 297.457 51.3272C297.262 52.4075 296.807 53.3527 296.093 54.1629C294.275 56.2695 291.483 57.4848 287.717 57.8089C287.912 58.5651 288.269 59.2133 288.788 59.7534C290.087 60.9417 292.003 61.5089 294.535 61.4549C299.729 61.2928 305.248 58.5111 311.092 53.1096C311.547 52.7315 312.066 52.5425 312.65 52.5425ZM292.489 49.6257C291.905 49.6257 291.191 50.0578 290.347 50.9221C289.503 51.7863 288.821 52.8126 288.301 54.0009C290.249 53.6228 291.645 52.9476 292.489 51.9753C292.814 51.6513 293.009 51.2732 293.074 50.841C293.139 50.3549 293.106 50.0038 292.976 49.7878C292.912 49.6797 292.749 49.6257 292.489 49.6257Z"/>
</mask>
<path d="M287.441 52.8666C288.155 52.7586 288.805 52.8666 289.389 53.1907C289.973 53.5148 290.331 53.9739 290.46 54.568C290.59 55.1082 290.46 55.6213 290.071 56.1074C285.656 61.5629 279.585 65.803 271.858 68.8278C268.157 76.1198 260.787 81.8993 249.749 86.1664C239.815 90.0555 229.004 92 217.316 92C214.33 92 211.408 91.838 208.551 91.5139C206.019 91.2978 203.746 90.8387 201.733 90.1365C199.72 89.4343 198.032 88.5431 196.669 87.4628C195.305 86.3825 194.299 85.1672 193.649 83.8168C193 82.3044 192.838 80.765 193.162 79.1986C193.487 77.6862 194.299 76.3628 195.597 75.2285C197.545 73.392 201.149 72.2037 206.408 71.6636C205.434 60.6446 205.726 49.4367 207.285 38.0396C208.843 26.5886 211.505 16.5419 215.271 7.8996C215.531 7.35946 215.985 6.98136 216.635 6.7653C217.284 6.49523 217.933 6.46822 218.583 6.68428C219.232 6.84632 219.719 7.19742 220.043 7.73756C220.368 8.2777 220.401 8.81785 220.141 9.35799C215.92 19.0806 213.128 30.5046 211.765 43.6301C212.609 41.0374 213.55 38.4717 214.589 35.9331C215.628 33.3944 216.732 30.9637 217.901 28.6411C219.07 26.3185 220.271 24.1039 221.504 21.9974C222.803 19.8368 224.134 17.8112 225.498 15.9207C226.926 14.0302 228.387 12.3288 229.88 10.8164C235.984 4.28064 242.25 0.715691 248.678 0.121532C254.132 -0.364597 258.255 0.607661 261.047 3.03831C264.229 5.79304 265.3 10.1142 264.261 16.0018C263.612 19.4047 261.988 22.9966 259.391 26.7776C256.794 30.5586 253.45 34.2046 249.359 37.7155C247.087 39.7141 244.749 41.4695 242.347 42.9819C254.684 43.036 263.644 45.4396 269.228 50.1929C273.254 53.7038 274.812 58.025 273.903 63.1563C278.773 60.6717 282.734 57.5388 285.785 53.7578C286.24 53.2717 286.792 52.9746 287.441 52.8666ZM247.509 82.2774C254.976 79.4146 260.592 75.7687 264.358 71.3395C260.203 72.4198 255.431 73.257 250.041 73.8512C244.652 74.4993 240.269 74.8774 236.893 74.9855C233.517 75.0935 228.939 75.2015 223.16 75.3096C218.096 75.3636 214.427 75.4446 212.154 75.5526C212.284 77.6592 212.512 79.6577 212.836 81.5482C212.966 82.1424 212.804 82.6555 212.349 83.0876C211.96 83.5738 211.408 83.8708 210.693 83.9789C210.239 84.0329 209.784 83.9789 209.33 83.8168C208.94 83.7088 208.583 83.4927 208.259 83.1686C207.999 82.8986 207.837 82.5745 207.772 82.1964C207.382 80.1438 207.057 78.0643 206.798 75.9577C202.967 76.3898 200.467 77.119 199.298 78.1453C198.065 79.2796 197.805 80.657 198.519 82.2774C199.753 85.0321 203.291 86.7066 209.135 87.3008C215.628 87.8949 222.219 87.7599 228.906 86.8956C235.594 86.0314 241.795 84.492 247.509 82.2774ZM268.644 62.9943C269.553 59.0512 268.481 55.7834 265.43 53.1907C262.508 50.706 258.06 49.0045 252.087 48.0863C246.178 47.114 239.36 47.033 231.634 47.8432C230.789 48.0053 229.978 48.0863 229.199 48.0863C228.744 48.0863 228.322 48.0053 227.933 47.8432C227.608 47.6812 227.316 47.4651 227.056 47.1951C226.796 46.871 226.666 46.5199 226.666 46.1418C226.601 45.5476 226.764 45.0345 227.153 44.6024C227.608 44.1703 228.16 43.9272 228.809 43.8732C229.458 43.7652 230.075 43.6841 230.66 43.6301C231.828 43.36 233.159 42.8739 234.653 42.1717C236.211 41.4155 237.964 40.3893 239.912 39.0929C241.86 37.7966 243.776 36.3382 245.658 34.7177C247.541 33.1513 249.23 31.5309 250.723 29.8565C252.281 28.182 253.612 26.5346 254.716 24.9141C255.885 23.2397 256.826 21.5923 257.541 19.9718C258.32 18.3514 258.839 16.812 259.099 15.3536C259.943 10.8704 259.359 7.76457 257.346 6.03611C256.047 4.90181 254.034 4.33465 251.307 4.33465C250.658 4.33465 249.976 4.36166 249.262 4.41568C244.262 4.84779 239.133 7.84559 233.874 13.4091C231.601 15.8937 229.361 18.8105 227.153 22.1594C225.011 25.5083 223.03 29.1543 221.212 33.0973C219.459 37.0404 217.901 41.1455 216.537 45.4126C213.68 54.541 212.187 63.1563 212.057 71.2585C214.265 71.1504 217.966 71.0694 223.16 71.0154C228.095 70.9614 231.958 70.8804 234.75 70.7723C237.607 70.6643 241.243 70.4213 245.658 70.0432C250.139 69.6651 254.164 69.1249 257.736 68.4227C261.372 67.6665 264.748 66.7483 267.865 65.668C268.189 64.8038 268.449 63.9125 268.644 62.9943ZM312.65 52.5425C313.3 52.4885 313.852 52.6505 314.306 53.0286C314.761 53.3527 314.988 53.7848 314.988 54.325C315.053 54.8111 314.858 55.2432 314.403 55.6213C307.716 61.779 301.158 64.9388 294.73 65.1008C294.535 65.1008 294.34 65.1008 294.145 65.1008C290.444 65.1008 287.555 64.1286 285.477 62.1841C283.464 60.2936 282.75 57.9169 283.334 55.0542C283.724 53.0556 284.698 51.1381 286.256 49.3016C288.139 47.033 290.217 45.8987 292.489 45.8987C294.567 45.8987 296.061 46.6549 296.97 48.1673C297.554 49.1936 297.716 50.2469 297.457 51.3272C297.262 52.4075 296.807 53.3527 296.093 54.1629C294.275 56.2695 291.483 57.4848 287.717 57.8089C287.912 58.5651 288.269 59.2133 288.788 59.7534C290.087 60.9417 292.003 61.5089 294.535 61.4549C299.729 61.2928 305.248 58.5111 311.092 53.1096C311.547 52.7315 312.066 52.5425 312.65 52.5425ZM292.489 49.6257C291.905 49.6257 291.191 50.0578 290.347 50.9221C289.503 51.7863 288.821 52.8126 288.301 54.0009C290.249 53.6228 291.645 52.9476 292.489 51.9753C292.814 51.6513 293.009 51.2732 293.074 50.841C293.139 50.3549 293.106 50.0038 292.976 49.7878C292.912 49.6797 292.749 49.6257 292.489 49.6257Z" fill="#613D2B" stroke="#613D2B" stroke-width="2" mask="url(#path-2-inside-2_22_8)"/>
<path d="M400.741 57.0929C401.512 56.4537 402.516 55.5868 403.758 54.494C403.787 54.8837 403.873 55.2635 404.019 55.6318C404.266 56.2569 404.676 56.8238 405.23 57.3367C404.739 57.7724 404.299 58.1387 403.911 58.4363L403.902 58.4434L403.893 58.4508C403.224 59.0151 402.318 59.7102 401.173 60.5375C400.059 61.2893 398.932 61.8507 397.791 62.2263C396.717 62.5493 395.627 62.6886 394.513 62.645L394.513 62.6449C393.959 62.6234 393.41 62.55 392.86 62.4245C392.066 62.237 391.38 61.9783 390.798 61.6536C390.271 61.3262 389.843 61.009 389.507 60.7031C389.236 60.3448 388.962 59.9095 388.692 59.3947C388.636 59.2601 388.584 59.134 388.535 59.0161C388.389 58.6624 388.274 58.3835 388.19 58.178C388.091 57.8775 387.992 57.4649 387.895 56.9326L387.892 56.9154L387.887 56.8985C387.62 55.8482 387.323 55.035 386.978 54.5094C386.658 53.9194 386.063 53.517 385.306 53.2511L385.307 53.2509L385.295 53.2473C384.148 52.8745 382.748 53.1682 381.167 53.9508L381.167 53.9508L381.159 53.9551C379.662 54.7314 378.413 55.5255 377.423 56.3399L377.416 56.3457L377.409 56.3517C376.514 57.1452 375.376 58.2019 373.998 59.5202C372.905 60.5175 372.12 61.2233 371.644 61.6395C371.199 62.0294 370.658 62.3967 370.018 62.7392C369.479 63.0108 368.97 63.1265 368.483 63.1075L368.41 63.1045L368.391 63.1038L368.386 63.1036L368.386 63.1036L368.385 63.1036C367.645 63.0743 367.107 62.8399 366.719 62.437L366.719 62.4369L366.71 62.4274C365.885 61.6156 365.452 60.3626 365.504 58.5673C365.557 56.7723 366.096 54.4923 367.151 51.7124C367.315 51.3631 367.585 51.1143 367.996 50.9607L368.016 50.9533L368.035 50.9442C368.451 50.7471 368.875 50.7197 369.335 50.8687L369.36 50.8769L369.386 50.8823C369.93 50.9965 370.218 51.2213 370.365 51.501L370.377 51.5241L370.392 51.5459C370.591 51.8447 370.627 52.1618 370.46 52.5618L370.46 52.5618L370.455 52.5731C369.461 55.131 368.933 57.2093 368.916 58.7818L368.903 59.9421L369.755 59.1545C369.997 58.9314 370.324 58.6296 370.739 58.2484C370.91 58.0905 371.096 57.9191 371.297 57.734C374.106 55.162 376.297 53.3804 377.878 52.3701C381.17 50.3569 384.075 49.8539 386.638 50.7213L386.638 50.7214L386.644 50.7233C387.725 51.0744 388.595 51.6175 389.268 52.3449C389.992 53.1271 390.428 53.7531 390.625 54.229C390.84 54.7491 391.052 55.4673 391.258 56.3948L391.259 56.4018L391.261 56.4088C391.527 57.4643 391.797 58.2524 392.078 58.7158L392.092 58.7392L392.109 58.7608C392.503 59.2753 393.095 59.5872 393.811 59.7398C394.934 60.0353 396.181 59.7811 397.511 59.0899C398.868 58.4203 399.948 57.756 400.741 57.0929ZM400.741 57.0929C400.74 57.0931 400.74 57.0933 400.74 57.0935L400.421 56.7086L400.742 57.092C400.741 57.0923 400.741 57.0926 400.741 57.0929ZM406.111 51.905L406.106 51.9053C405.869 51.9181 405.641 51.9547 405.424 52.0153C405.756 51.5083 406.238 50.9818 406.888 50.4378C407.955 49.5435 409.44 48.6297 411.359 47.701C411.794 47.4961 412.235 47.4482 412.706 47.5557L412.706 47.5557L412.714 47.5575C413.26 47.672 413.606 47.9055 413.816 48.2229L413.817 48.2246C414.04 48.5579 414.081 48.8694 413.974 49.2016C413.864 49.5426 413.619 49.8472 413.175 50.1052C411.767 50.7653 410.661 51.3719 409.868 51.9256C409.47 52.2038 409.139 52.4766 408.887 52.745C408.775 52.8642 408.674 52.9877 408.587 53.1155C408.455 52.9194 408.289 52.7412 408.092 52.5824C407.551 52.0893 406.876 51.8708 406.111 51.905ZM407.973 54.3453C407.998 54.6639 407.892 54.9454 407.592 55.2184C407.374 55.3875 407.059 55.656 406.656 56.0175L406.651 56.0229L406.645 56.0284C406.413 56.2505 406.189 56.4615 405.974 56.6614C405.474 56.2137 405.14 55.7461 404.948 55.2635C404.737 54.7309 404.688 54.1467 404.82 53.4972C404.864 53.4595 404.904 53.4273 404.938 53.4005L404.953 53.3895L404.966 53.3774C405.288 53.0904 405.676 52.9304 406.158 52.9039C406.693 52.8805 407.103 53.0298 407.427 53.3295L407.441 53.3424L407.456 53.3541C407.783 53.6137 407.949 53.9313 407.973 54.3367L407.972 54.3367L407.973 54.3453ZM408.246 55.9755C408.553 55.7015 408.769 55.3854 408.883 55.0334C409.066 55.1531 409.304 55.2942 409.592 55.4553L409.607 55.4639L409.623 55.4714C410.279 55.7806 411.283 56.1822 412.629 56.6751L412.64 56.6792L412.651 56.6827C414.247 57.1828 415.403 57.6052 416.133 57.9492L416.307 58.031L416.491 57.9756C423.563 55.844 429.564 54.5532 434.499 54.0936L434.508 54.0928L434.516 54.0917C435.066 54.0214 435.469 54.1338 435.78 54.3811L435.809 54.4036L435.84 54.4219C436.207 54.6344 436.414 54.9167 436.496 55.29C436.482 55.4464 436.446 55.6288 436.386 55.8386C436.336 55.9704 436.241 56.121 436.078 56.2879L436.069 56.2965L436.062 56.3055C435.973 56.4056 435.829 56.5234 435.609 56.6528C435.391 56.7317 435.176 56.7894 434.964 56.8264C430.929 57.1698 425.891 58.2172 419.859 59.9584L419.217 60.1437L419.576 60.7072C419.901 61.2192 420.139 61.7777 420.287 62.3846C420.451 63.2864 420.202 64.1659 419.463 65.052C418.708 65.9571 417.449 66.8548 415.64 67.7283C413.212 68.8707 410.476 69.7091 407.423 70.24C405.936 70.4513 404.63 70.5326 403.5 70.4883C401.984 70.4289 400.908 70.1185 400.207 69.6181L400.207 69.618L400.201 69.6144C399.639 69.2235 399.319 68.8034 399.18 68.3655C399.042 67.9302 399.063 67.4143 399.299 66.7919C399.558 66.1694 400.101 65.4896 400.986 64.76C401.869 64.0317 403.066 63.2763 404.588 62.4967C406.24 61.6948 408.289 60.8502 410.736 59.9632L412.049 59.4875L410.733 59.0218C408.928 58.3833 407.623 57.7986 406.785 57.2728C406.962 57.1072 407.144 56.935 407.331 56.7562C407.735 56.3933 408.031 56.1428 408.218 55.9989L408.232 55.9877L408.246 55.9755ZM415.933 61.3576L415.626 61.1145L415.359 61.3209L415.351 61.3206L415.263 61.3505C411.932 62.4856 409.284 63.5144 407.318 64.4374L407.318 64.4373L407.311 64.4406C405.432 65.3575 404.072 66.1513 403.271 66.822L402.277 67.6542L403.572 67.705C405.001 67.7609 406.854 67.519 409.118 66.9992L409.118 66.9991C411.4 66.4746 413.351 65.7089 414.962 64.6926C415.539 64.3552 415.991 64.0531 416.298 63.7879C416.451 63.6558 416.589 63.5156 416.687 63.368C416.777 63.2322 416.877 63.0233 416.839 62.7778C416.771 62.2164 416.423 61.7466 415.933 61.3576Z" fill="#613D2B" stroke="#613D2B"/>
<path d="M365.398 39.8633L365.452 39.9058L365.456 39.9075C369.115 42.8318 370.407 46.9674 369.573 51.371C368.735 55.7982 365.738 60.515 360.771 64.4774C359.296 65.6527 357.709 66.7135 356.036 67.643L355.721 67.8178L355.787 68.1716C356.64 72.7506 355.226 76.7431 351.801 79.5032L351.797 79.5059L351.775 79.5219L351.754 79.5403C351.746 79.5471 351.743 79.5502 351.741 79.5521C348.266 82.3184 342.921 83.3363 337.147 82.6433C331.379 81.9512 325.259 79.5586 320.309 75.6087L320.309 75.6087C315.417 71.7076 312.437 66.8823 311.553 62.3553C310.672 57.8391 311.873 53.6352 315.326 50.8494L315.334 50.8425C315.355 50.8263 315.373 50.8116 315.38 50.8052C318.862 48.0305 323.977 46.8537 329.865 47.55L330.127 47.5809L330.301 47.3822C331.46 46.0542 332.788 44.789 334.26 43.6138C339.198 39.6745 345.131 37.2559 350.765 36.5695C356.406 35.8823 361.693 36.935 365.398 39.8633ZM349.021 38.6777C344.609 39.5856 340.045 41.6562 336.105 44.7995C335.082 45.614 334.134 46.4754 333.269 47.374L332.664 48.0021L333.511 48.2069C337.753 49.2321 341.894 51.1435 345.521 53.7617L346.101 54.1807L346.295 53.4916C347.117 50.5646 348.813 47.8615 351.233 45.6541L351.233 45.654C353.778 43.331 357.131 41.5503 360.938 40.5167L360.939 40.5165L361.017 40.495L362.347 40.1309L361.093 39.5579C357.72 38.0172 353.428 37.7708 349.021 38.6777ZM316.18 54.1785L315.812 53.3172L315.302 54.1025C313.46 56.9342 313.336 60.5602 314.575 64.1781C315.815 67.7983 318.43 71.4547 322.151 74.4226L322.462 74.0317L322.151 74.4226C326.327 77.7542 331.455 79.8959 336.326 80.706C341.183 81.5139 345.86 81.0081 349.084 78.944L349.436 78.7188L349.277 78.3326L348.744 77.037L348.744 77.037C346.43 71.4158 340.508 67.2716 333.358 66.1412C325.335 64.8727 318.78 60.2595 316.18 54.1785ZM350.985 76.208L351.344 77.0238L351.853 76.2921C353.427 74.0296 353.909 71.1895 353.261 68.0862C352.295 63.4625 349.065 59.1943 344.972 55.931C340.739 52.5534 335.676 50.342 330.849 49.5079C326.031 48.6754 321.386 49.2061 318.042 51.4002L317.692 51.6298L317.856 52.0146L318.563 53.6684C320.921 59.2006 326.816 63.2822 333.878 64.399L333.878 64.399C341.85 65.6594 348.34 70.198 350.985 76.208ZM354.975 65.3004L355.189 65.864L355.704 65.5492C356.828 64.8608 357.906 64.1057 358.926 63.2915C363.191 59.8888 365.928 55.8669 366.915 52.0086C367.905 48.1383 367.13 44.4196 364.352 41.7448L364.148 41.5481L363.875 41.6224L361.799 42.1858L361.799 42.1858C354.91 44.0568 350.069 48.4289 348.624 54.2404L348.624 54.241C348.517 54.6731 348.387 55.1056 348.237 55.535L348.128 55.8477L348.373 56.0701C351.485 58.8893 353.747 62.0684 354.975 65.3004Z" fill="#613D2B" stroke="#613D2B"/>
</svg>
